<svg width="25" height="24" viewBox="0 0 25 24" fill="none" xmlns="http://www.w3.org/2000/svg">
<path d="M22.5838 11.9553H1.50558C0.675489 11.9553 0 12.6308 0 13.4609C0 14.291 0.675489 14.9665 1.50558 14.9665H22.5838C23.4138 14.9665 24.0893 14.291 24.0893 13.4609C24.0893 12.6308 23.4138 11.9553 22.5838 11.9553Z" fill="#888B97"/>
<path d="M22.7222 13.9819C22.4502 13.9056 22.1772 14.0602 22.1019 14.3272L22.0628 14.4647H2.02747L1.98734 14.3272C1.91206 14.0602 1.63705 13.9076 1.36704 13.9819C1.10003 14.0581 0.94646 14.3362 1.02277 14.6022L2.40589 19.4441C2.83446 20.9447 4.22364 21.9926 5.78343 21.9926H18.3048C19.8656 21.9926 21.2538 20.9447 21.6824 19.4441L23.0655 14.6022C23.1428 14.3362 22.9882 14.0581 22.7222 13.9819ZM5.78442 19.9851C5.11594 19.9851 4.51973 19.5364 4.33703 18.893L3.68563 16.6106C3.60937 16.3436 3.76392 16.0665 4.02989 15.9903C4.29888 15.914 4.57492 16.0695 4.65019 16.3356L5.3016 18.618C5.36384 18.8318 5.56154 18.9824 5.78437 18.9824C6.0614 18.9824 6.28625 19.2072 6.28625 19.4843C6.28629 19.7613 6.06144 19.9851 5.78442 19.9851Z" fill="#888B97"/>
<path d="M6.74806 21.0411C6.50015 20.9197 6.20002 21.017 6.07454 21.266L5.07083 23.2734C4.94738 23.5213 5.04773 23.8224 5.29568 23.9469C5.36894 23.9831 5.44526 24.0001 5.52053 24.0001C5.70422 24.0001 5.88089 23.8987 5.9692 23.7221L6.97291 21.7147C7.09637 21.4667 6.99596 21.1655 6.74806 21.0411Z" fill="#888B97"/>
<path d="M19.0185 23.2743L18.0148 21.2668C17.8903 21.0179 17.5892 20.9185 17.3413 21.042C17.0933 21.1664 16.9929 21.4676 17.1164 21.7155L18.1201 23.723C18.2084 23.8986 18.3851 24 18.5688 24C18.6441 24 18.7203 23.9829 18.7936 23.9478C19.0416 23.8233 19.1419 23.5222 19.0185 23.2743Z" fill="#888B97"/>
<path d="M20.1598 0C19.6479 0 19.1661 0.199725 18.8038 0.5621L17.2109 2.15501C17.0151 2.35073 17.0151 2.66893 17.2109 2.86465C17.4066 3.06038 17.7248 3.06038 17.9205 2.86465L19.5134 1.27274C19.685 1.10011 19.9148 1.00474 20.1648 1.00474C20.6686 1.00474 21.0781 1.41426 21.0781 1.91811V12.4572C21.0781 12.7342 21.303 12.9591 21.58 12.9591C21.857 12.9591 22.0819 12.7342 22.0829 12.4562V1.91713C22.0829 0.860206 21.2237 0 20.1598 0Z" fill="#888B97"/>
<path d="M18.4223 2.65681L17.4185 1.65311C17.3041 1.53868 17.1445 1.48547 16.9819 1.51257L14.4726 1.92411C14.288 1.95422 14.1364 2.08469 14.0772 2.26136C14.018 2.43803 14.0631 2.63475 14.1936 2.76822L17.2048 5.86973C17.3002 5.9691 17.4316 6.02231 17.5641 6.02231C17.6113 6.02231 17.6595 6.0153 17.7066 6.00123C17.8853 5.94905 18.0208 5.80151 18.0569 5.61881L18.5588 3.10952C18.5919 2.94588 18.5407 2.77622 18.4223 2.65681Z" fill="#888B97"/>
<path d="M11.8971 6.08063C11.7014 5.88491 11.3832 5.88491 11.1875 6.08063L10.1838 7.08434C9.98804 7.28007 9.98804 7.59826 10.1838 7.79399C10.2821 7.89133 10.4106 7.94055 10.5391 7.94055C10.6676 7.94055 10.796 7.89138 10.8934 7.79399L11.8971 6.79028C12.0928 6.59451 12.0928 6.27636 11.8971 6.08063Z" fill="#888B97"/>
<path d="M13.9045 8.08796C13.7088 7.89223 13.3906 7.89223 13.1949 8.08796L12.1912 9.09166C11.9955 9.28739 11.9955 9.60559 12.1912 9.80131C12.2896 9.89866 12.418 9.94787 12.5465 9.94787C12.675 9.94787 12.8034 9.89871 12.9008 9.80131L13.9045 8.79761C14.1003 8.60188 14.1003 8.28368 13.9045 8.08796Z" fill="#888B97"/>
<path d="M14.9083 5.07673C14.7126 4.881 14.3944 4.881 14.1986 5.07673L13.1949 6.08043C12.9992 6.27616 12.9992 6.59436 13.1949 6.79008C13.2933 6.88743 13.4218 6.93664 13.5503 6.93664C13.6787 6.93664 13.8072 6.88748 13.9046 6.79008L14.9083 5.78637C15.104 5.59065 15.104 5.27245 14.9083 5.07673Z" fill="#888B97"/>
</svg>
