<svg width="13" height="13" viewBox="0 0 13 13" fill="none" xmlns="http://www.w3.org/2000/svg">
<path d="M11.2 2.98944H1.2V2.58944L10 1.88544V2.58944H11.2V1.38944C11.2 0.509442 10.4872 -0.108158 9.6168 0.0158422L1.584 1.16304C0.7128 1.28784 0 2.10944 0 2.98944V10.9894C0 11.4138 0.168571 11.8208 0.468629 12.1208C0.768687 12.4209 1.17565 12.5894 1.6 12.5894H11.2C11.6243 12.5894 12.0313 12.4209 12.3314 12.1208C12.6314 11.8208 12.8 11.4138 12.8 10.9894V4.58944C12.8 4.1651 12.6314 3.75813 12.3314 3.45807C12.0313 3.15801 11.6243 2.98944 11.2 2.98944ZM10 8.59424C9.84236 8.59419 9.68628 8.56309 9.54066 8.50272C9.39504 8.44234 9.26274 8.35388 9.15131 8.24237C9.03988 8.13087 8.9515 7.99851 8.89122 7.85285C8.83094 7.70719 8.79995 7.55108 8.8 7.39344C8.80005 7.2358 8.83115 7.07972 8.89153 6.9341C8.9519 6.78848 9.04037 6.65618 9.15187 6.54475C9.26338 6.43332 9.39574 6.34494 9.5414 6.28466C9.68705 6.22439 9.84316 6.19339 10.0008 6.19344C10.3192 6.19355 10.6244 6.32012 10.8495 6.54531C11.0745 6.77051 11.2009 7.07588 11.2008 7.39424C11.2007 7.71261 11.0741 8.01789 10.8489 8.24294C10.6237 8.46798 10.3184 8.59435 10 8.59424Z" fill="#047857"/>
</svg>
