<svg width="15" height="20" viewBox="0 0 15 20" fill="none" xmlns="http://www.w3.org/2000/svg">
<path d="M3.88784 0.102171C4.41294 -0.0561484 4.97643 -0.0298462 5.48449 0.176699C5.99256 0.383245 6.41456 0.757574 6.68024 1.23737L6.77024 1.41617L7.56344 3.18137C7.80453 3.71715 7.88279 4.31199 7.78849 4.8919C7.69418 5.4718 7.43148 6.01119 7.03304 6.44297L6.87464 6.60137L5.62184 7.76897C5.39624 7.98257 5.56544 8.80937 6.38264 10.223C7.11584 11.495 7.71464 12.089 8.00744 12.1214H8.05904L8.12264 12.1094L10.5826 11.357C10.9133 11.2556 11.2661 11.2516 11.5989 11.3454C11.9317 11.4393 12.2305 11.627 12.4594 11.8862L12.5698 12.0242L14.197 14.2802C14.5163 14.7222 14.6756 15.2598 14.6485 15.8045C14.6215 16.3491 14.4098 16.8683 14.0482 17.2766L13.9018 17.4278L13.2502 18.0446C12.6662 18.5977 11.9356 18.9714 11.1453 19.1214C10.355 19.2714 9.53831 19.1913 8.79224 18.8906C6.47024 17.9546 4.36064 15.8162 2.44424 12.497C0.524243 9.16937 -0.273756 6.26897 0.0826436 3.78497C0.190597 3.03396 0.499976 2.32621 0.977911 1.73692C1.45585 1.14764 2.08449 0.698828 2.79704 0.438171L3.02864 0.361371L3.88784 0.102171Z" fill="white"/>
</svg>
