<svg width="24" height="22" viewBox="0 0 24 22" fill="none" xmlns="http://www.w3.org/2000/svg">
<path d="M22.7884 4H18.4324C17.7631 4 17.2207 4.53666 17.2207 5.19956V8.31351H14.0759C13.4064 8.31351 12.8641 8.84997 12.8641 9.51292V12.6271H9.71919C9.0497 12.6271 8.50752 13.1643 8.50752 13.8265V17.0907H5.21171C4.89012 17.0907 4.58195 17.2169 4.35482 17.4416C4.1275 17.6664 4 17.973 4 18.2901L4.00039 20.7999C4.00039 21.4634 4.54297 22 5.21206 22H22.7884C23.4579 22 24 21.4634 24 20.7999V5.19951C24.0001 4.53666 23.4579 4 22.7884 4Z" fill="#888B97"/>
<path d="M16.764 0.245303C16.4425 -0.0761127 15.9158 -0.0822899 15.5863 0.230429C10.2431 5.30548 5.15982 10.2624 0.244094 15.0549C0.0876831 15.2074 0 15.4146 0 15.6296V21.1877C0 21.6356 0.37278 22 0.832939 22C1.29264 22 1.66608 21.6357 1.66608 21.1877V15.9657C6.50203 11.2503 11.5017 6.37796 16.7485 1.39368C17.0778 1.08102 17.0845 0.566522 16.764 0.245303Z" fill="#888B97"/>
</svg>
