<svg width="12" height="13" viewBox="0 0 12 13" fill="none" xmlns="http://www.w3.org/2000/svg">
<path d="M12.0001 5.54743V11.3262C11.9999 11.5074 11.9508 11.6852 11.8579 11.8408C11.765 11.9964 11.6318 12.124 11.4723 12.2101C11.3278 12.2883 11.1657 12.3283 11.0014 12.3261H7.99788C7.86527 12.3261 7.73809 12.2734 7.64433 12.1797C7.55056 12.0859 7.49788 11.9587 7.49788 11.8261V8.82568C7.49788 8.69307 7.4452 8.5659 7.35143 8.47213C7.25766 8.37836 7.13049 8.32568 6.99788 8.32568H4.99788C4.86527 8.32568 4.73809 8.37836 4.64433 8.47213C4.55056 8.5659 4.49788 8.69307 4.49788 8.82568V11.8261C4.49788 11.9587 4.4452 12.0859 4.35143 12.1797C4.25766 12.2734 4.13049 12.3261 3.99788 12.3261H1.00019C0.858424 12.3265 0.718217 12.2965 0.588964 12.2383C0.459711 12.1801 0.344399 12.0949 0.250755 11.9884C0.0863676 11.7983 -0.00279731 11.5546 6.69212e-05 11.3033V5.54737C0.000175878 5.40805 0.0293408 5.27028 0.085699 5.14286C0.142057 5.01544 0.22437 4.90118 0.327379 4.80737L5.32694 0.261557C5.51059 0.0933405 5.75059 2.31422e-05 5.99964 4.30378e-09C6.24868 -2.31336e-05 6.4887 0.0932497 6.67238 0.261432L11.6728 4.80743C11.7758 4.90126 11.8581 5.01553 11.9144 5.14294C11.9708 5.27035 11.9999 5.40812 12.0001 5.54743Z" fill="#1D4ED8"/>
</svg>
