<svg width="9" height="17" viewBox="0 0 9 17" fill="none" xmlns="http://www.w3.org/2000/svg">
<path d="M7.00778 16.3312C7.27808 16.3318 7.54004 16.237 7.74818 16.0635C7.86532 15.9658 7.96215 15.8457 8.03313 15.7103C8.10411 15.5749 8.14783 15.4267 8.1618 15.2742C8.17577 15.1217 8.15971 14.968 8.11454 14.8218C8.06937 14.6756 7.99598 14.5398 7.89857 14.4221L2.71577 8.18263L7.71347 1.93149C7.80957 1.81242 7.88133 1.67541 7.92463 1.52834C7.96794 1.38127 7.98193 1.22704 7.9658 1.07451C7.94968 0.921987 7.90375 0.774169 7.83067 0.639558C7.75758 0.504947 7.65878 0.386197 7.53994 0.290134C7.42024 0.184159 7.28007 0.104224 7.12821 0.0553456C6.97636 0.0064668 6.8161 -0.0103003 6.6575 0.00609568C6.4989 0.0224917 6.34538 0.0716973 6.20658 0.150624C6.06778 0.229552 5.94668 0.336496 5.8509 0.464746L0.263194 7.44926C0.0930386 7.65755 1.90735e-05 7.91882 1.90735e-05 8.18845C1.90735e-05 8.45809 0.0930386 8.71935 0.263194 8.92765L6.04757 15.9122C6.16362 16.053 6.31105 16.1644 6.47788 16.2372C6.64471 16.31 6.82626 16.3422 7.00778 16.3312Z" fill="#3C4563"/>
</svg>
