<svg width="9" height="17" viewBox="0 0 9 17" fill="none" xmlns="http://www.w3.org/2000/svg">
<path d="M1.15891 0.00202179C0.888605 0.00148964 0.626647 0.0962181 0.418511 0.26976C0.301367 0.367484 0.204535 0.487504 0.133558 0.622942C0.0625819 0.75838 0.0188562 0.906575 0.00488597 1.05904C-0.0090843 1.21151 0.00697547 1.36525 0.0521451 1.51147C0.0973147 1.65768 0.170706 1.79349 0.268117 1.91112L5.45092 8.15062L0.453218 14.4018C0.357121 14.5208 0.285358 14.6578 0.242054 14.8049C0.19875 14.952 0.184759 15.1062 0.200885 15.2587C0.217011 15.4113 0.262935 15.5591 0.33602 15.6937C0.409104 15.8283 0.507907 15.9471 0.626749 16.0431C0.746446 16.1491 0.88662 16.229 1.03847 16.2779C1.19033 16.3268 1.35058 16.3436 1.50918 16.3272C1.66778 16.3108 1.8213 16.2616 1.96011 16.1826C2.09891 16.1037 2.22 15.9968 2.31579 15.8685L7.90349 8.88399C8.07365 8.6757 8.16667 8.41443 8.16667 8.1448C8.16667 7.87517 8.07365 7.6139 7.90349 7.4056L2.11912 0.421093C2.00306 0.280218 1.85564 0.168858 1.68881 0.0960445C1.52197 0.0232334 1.34043 -0.0089798 1.15891 0.00202179Z" fill="white"/>
</svg>
