<svg width="24" height="24" viewBox="0 0 24 24" fill="none" xmlns="http://www.w3.org/2000/svg">
<path d="M23.2715 8.3778C23.1982 8.16181 23.0632 7.97202 22.8833 7.83186C22.7033 7.69171 22.4862 7.60733 22.2589 7.58913L15.6077 7.06063L12.7295 0.689462C12.6379 0.48426 12.4888 0.309971 12.3003 0.187629C12.1117 0.0652881 11.8918 0.000123526 11.6671 1.75442e-07C11.4423 -0.000123175 11.2224 0.0648 11.0337 0.186934C10.845 0.309069 10.6958 0.483194 10.6039 0.688296L7.7257 7.06063L1.07453 7.58913C0.851062 7.60683 0.637425 7.68854 0.459178 7.82448C0.280931 7.96042 0.145622 8.14484 0.0694393 8.35566C-0.00674378 8.56649 -0.0205753 8.7948 0.0295997 9.01328C0.0797747 9.23176 0.191832 9.43116 0.352364 9.58763L5.26753 14.3791L3.5292 21.9065C3.47641 22.1343 3.49333 22.3728 3.57775 22.5909C3.66218 22.809 3.81021 22.9967 4.00263 23.1296C4.19506 23.2626 4.423 23.3346 4.65688 23.3364C4.89075 23.3382 5.11977 23.2696 5.3142 23.1396L11.6667 18.9046L18.0192 23.1396C18.2179 23.2716 18.4523 23.3395 18.6908 23.3343C18.9293 23.329 19.1604 23.2509 19.3532 23.1104C19.5459 22.9698 19.691 22.7737 19.7689 22.5482C19.8469 22.3228 19.8539 22.0789 19.789 21.8493L17.6552 14.3826L22.9472 9.6203C23.2937 9.30763 23.4209 8.81996 23.2715 8.3778Z" fill="#F59E0B"/>
</svg>
