<svg width="11" height="6" viewBox="0 0 11 6" fill="none" xmlns="http://www.w3.org/2000/svg">
<path d="M10.4986 0.745015C10.499 0.571246 10.4381 0.402845 10.3265 0.269043C10.2637 0.193737 10.1866 0.131487 10.0995 0.0858594C10.0124 0.0402316 9.91715 0.0121223 9.81913 0.00314141C9.72112 -0.00583948 9.62228 0.00448465 9.52829 0.0335222C9.4343 0.0625598 9.34699 0.10974 9.27137 0.172361L5.26026 3.50416L1.24168 0.291354C1.16513 0.229578 1.07705 0.183444 0.982507 0.155606C0.887962 0.127768 0.788813 0.118774 0.69076 0.12914C0.592706 0.139507 0.49768 0.16903 0.411144 0.216013C0.324609 0.262995 0.248269 0.326511 0.186514 0.40291C0.118388 0.479858 0.0670014 0.56997 0.0355793 0.66759C0.00415719 0.765211 -0.00662168 0.868233 0.00391861 0.970189C0.0144589 1.07215 0.0460911 1.17084 0.0968299 1.26007C0.147569 1.3493 0.216319 1.42715 0.298766 1.48872L4.78881 5.08082C4.92271 5.1902 5.09067 5.25 5.26401 5.25C5.43734 5.25 5.6053 5.1902 5.7392 5.08082L10.2292 1.36229C10.3198 1.28768 10.3914 1.19291 10.4382 1.08566C10.485 0.978412 10.5057 0.861707 10.4986 0.745015Z" fill="white"/>
</svg>
